<?xml version="1.0" standalone="no"?>
<!DOCTYPE svg PUBLIC "-//W3C//DTD SVG 20010904//EN"
 "http://www.w3.org/TR/2001/REC-SVG-20010904/DTD/svg10.dtd">
<svg version="1.0" xmlns="http://www.w3.org/2000/svg"
 width="177.000000pt" height="227.000000pt" viewBox="0 0 177.000000 227.000000"
 preserveAspectRatio="xMidYMid meet">
<metadata>
Created by potrace 1.11, written by Peter Selinger 2001-2013
</metadata>
<g transform="translate(0.000000,227.000000) scale(0.100000,-0.100000)"
fill="#000000" stroke="none">
<path d="M524 2256 c-187 -43 -406 -202 -470 -340 -28 -62 -54 -172 -54 -231
0 -65 28 -176 60 -242 93 -190 321 -230 467 -83 162 163 67 455 -158 485 -76
11 -88 15 -109 37 -13 14 -20 35 -20 61 0 34 6 46 40 77 22 20 66 50 97 66 53
26 67 29 158 29 93 0 105 -2 165 -32 195 -96 306 -304 317 -593 17 -443 -195
-838 -613 -1146 -80 -60 -206 -137 -276 -170 -37 -17 -55 -44 -43 -64 24 -39
237 46 414 165 315 211 584 511 728 810 182 379 137 725 -127 985 -77 76 -173
138 -265 171 -77 27 -226 34 -311 15z"/>
<path d="M1543 2010 c-41 -24 -63 -67 -63 -120 0 -76 51 -131 129 -137 110
-10 185 108 131 204 -12 22 -35 47 -50 56 -38 23 -107 22 -147 -3z"/>
<path d="M1565 1386 c-52 -23 -85 -71 -85 -122 0 -109 90 -176 186 -139 138
52 114 255 -32 271 -21 2 -53 -2 -69 -10z"/>
</g>
</svg>
