<?xml version="1.0" standalone="no"?>
<!DOCTYPE svg PUBLIC "-//W3C//DTD SVG 20010904//EN"
 "http://www.w3.org/TR/2001/REC-SVG-20010904/DTD/svg10.dtd">
<svg version="1.0" xmlns="http://www.w3.org/2000/svg"
 width="100.000000pt" height="273.000000pt" viewBox="0 0 100.000000 273.000000"
 preserveAspectRatio="xMidYMid meet">
<metadata>
Created by potrace 1.11, written by Peter Selinger 2001-2013
</metadata>
<g transform="translate(0.000000,273.000000) scale(0.100000,-0.100000)"
fill="#000000" stroke="none">
<path d="M685 2711 c-80 -36 -199 -193 -236 -310 -30 -95 -35 -232 -15 -370
l17 -113 -138 -142 c-188 -191 -255 -292 -294 -444 -76 -299 105 -610 391
-672 30 -6 96 -10 147 -8 l91 3 17 -107 c23 -147 21 -261 -5 -330 -23 -63 -85
-128 -150 -157 -54 -25 -89 -26 -138 -5 l-37 15 45 20 c81 36 120 88 120 159
0 78 -51 139 -124 147 -58 7 -87 -1 -127 -34 -97 -82 -88 -234 19 -308 37 -25
55 -30 117 -33 148 -8 258 58 304 181 25 70 28 200 6 351 -8 55 -12 103 -10
106 2 4 26 15 52 25 100 38 182 111 230 205 25 49 28 67 31 170 3 98 0 124
-17 171 -63 167 -183 252 -353 251 -78 0 -70 -13 -93 141 l-16 108 89 93 c202
212 266 369 242 598 -5 54 -19 126 -31 160 -22 68 -68 148 -84 148 -5 0 -28
-9 -50 -19z m95 -143 c44 -97 18 -248 -65 -373 -57 -85 -215 -249 -229 -235
-5 5 -10 52 -11 103 0 130 41 247 140 397 47 69 119 150 136 150 5 0 19 -19
29 -42z m-274 -974 c7 -49 14 -96 14 -105 0 -9 -21 -26 -51 -39 -68 -32 -151
-123 -178 -195 -28 -74 -28 -174 0 -235 22 -50 89 -124 131 -146 24 -13 68
-19 68 -10 0 2 -22 25 -49 52 -75 75 -89 160 -41 253 33 67 132 140 149 112
11 -17 93 -572 86 -579 -4 -4 -50 -7 -103 -7 -87 0 -104 3 -162 31 -148 70
-230 215 -230 407 0 153 60 266 238 450 58 59 107 105 109 103 2 -2 11 -44 19
-92z m203 -304 c177 -50 233 -323 101 -490 -32 -41 -116 -98 -127 -86 -3 3
-12 37 -19 76 -16 81 -74 473 -74 495 0 18 65 21 119 5z"/>
</g>
</svg>
